<svg width="16" height="16" viewBox="0 0 16 16" fill="none" xmlns="http://www.w3.org/2000/svg">
<path fill-rule="evenodd" clip-rule="evenodd" d="M3.31049 3.35578C4.64686 3.22082 5.98338 3.15332 7.32001 3.15332C9.56359 3.15332 11.8134 3.26751 14.0493 3.48909C14.3241 3.51632 14.5248 3.76117 14.4976 4.03596C14.4703 4.31076 14.2255 4.51145 13.9507 4.48422C11.7466 4.26579 9.52975 4.15332 7.32001 4.15332C6.01687 4.15332 4.71364 4.21913 3.41026 4.35079L3.40879 4.35093L2.04879 4.48427C1.77397 4.51121 1.52934 4.31026 1.50239 4.03544C1.47545 3.76061 1.6764 3.51598 1.95122 3.48904L3.31049 3.35578Z" fill="black"/>
<path fill-rule="evenodd" clip-rule="evenodd" d="M6.3064 2.52308L6.15977 3.39618C6.11403 3.66851 5.85619 3.8522 5.58386 3.80647C5.31154 3.76073 5.12784 3.50289 5.17358 3.23056L5.32025 2.35723C5.32281 2.34202 5.32545 2.32609 5.32812 2.30996C5.37402 2.0327 5.44137 1.62596 5.7125 1.3185C6.02854 0.960119 6.51074 0.833374 7.12667 0.833374H8.87334C9.49677 0.833374 9.97849 0.970307 10.2926 1.33234C10.5641 1.64521 10.6298 2.05341 10.6737 2.32598C10.6758 2.33924 10.6779 2.35218 10.6799 2.36478L10.8263 3.22994C10.8724 3.50222 10.689 3.76029 10.4168 3.80636C10.1445 3.85244 9.88643 3.66907 9.84035 3.3968L9.69318 2.52717C9.63742 2.18515 9.60214 2.06239 9.53737 1.98774C9.50153 1.94644 9.37658 1.83337 8.87334 1.83337H7.12667C6.61594 1.83337 6.49481 1.9433 6.46252 1.97991C6.40111 2.04955 6.36645 2.16655 6.3064 2.52308Z" fill="black"/>
<path fill-rule="evenodd" clip-rule="evenodd" d="M12.5989 5.59444C12.8744 5.61223 13.0834 5.85004 13.0656 6.12561L12.6321 12.8417L12.6312 12.8543C12.6137 13.1052 12.5943 13.381 12.5427 13.6376C12.4891 13.9038 12.3946 14.1846 12.2032 14.4338C11.8024 14.9556 11.1204 15.1667 10.14 15.1667H5.86C4.87963 15.1667 4.19759 14.9556 3.7968 14.4338C3.6054 14.1846 3.51094 13.9038 3.45735 13.6376C3.40566 13.381 3.38634 13.1052 3.36878 12.8543L3.3677 12.8389L2.93438 6.12561C2.91659 5.85004 3.12556 5.61223 3.40113 5.59444C3.6767 5.57665 3.91451 5.78563 3.9323 6.06119L4.36545 12.7718C4.36548 12.7722 4.36551 12.7727 4.36554 12.7732C4.38436 13.0417 4.40028 13.2546 4.43766 13.4402C4.47407 13.621 4.52461 13.7397 4.58987 13.8247C4.70242 13.9712 4.98038 14.1667 5.86 14.1667H10.14C11.0196 14.1667 11.2976 13.9712 11.4101 13.8247C11.4754 13.7397 11.5259 13.621 11.5623 13.4402C11.5997 13.2546 11.6156 13.0417 11.6345 12.7732C11.6345 12.7727 11.6345 12.7722 11.6346 12.7718L12.0677 6.06119C12.0855 5.78563 12.3233 5.57665 12.5989 5.59444Z" fill="black"/>
<path fill-rule="evenodd" clip-rule="evenodd" d="M6.38666 11C6.38666 10.7239 6.61052 10.5 6.88666 10.5H9.10666C9.3828 10.5 9.60666 10.7239 9.60666 11C9.60666 11.2761 9.3828 11.5 9.10666 11.5H6.88666C6.61052 11.5 6.38666 11.2761 6.38666 11Z" fill="black"/>
<path fill-rule="evenodd" clip-rule="evenodd" d="M5.83334 8.33337C5.83334 8.05723 6.0572 7.83337 6.33334 7.83337H9.66668C9.94282 7.83337 10.1667 8.05723 10.1667 8.33337C10.1667 8.60952 9.94282 8.83337 9.66668 8.83337H6.33334C6.0572 8.83337 5.83334 8.60952 5.83334 8.33337Z" fill="black"/>
</svg>
