<svg width="16" height="16" viewBox="0 0 16 16" fill="none" xmlns="http://www.w3.org/2000/svg">
    <path d="M6.7 1.68669L2.68666 4.30669C1.4 5.14669 1.4 7.02669 2.68666 7.86669L6.7 10.4867C7.42 10.96 8.60666 10.96 9.32666 10.4867L13.32 7.86669C14.6 7.02669 14.6 5.15336 13.32 4.31336L9.32666 1.69336C8.60666 1.21336 7.42 1.21336 6.7 1.68669Z" stroke="black" stroke-linecap="round" stroke-linejoin="round"/>
    <path d="M3.75334 8.71997L3.74667 11.8466C3.74667 12.6933 4.40001 13.6 5.20001 13.8666L7.32667 14.5733C7.69334 14.6933 8.30001 14.6933 8.67334 14.5733L10.8 13.8666C11.6 13.6 12.2533 12.6933 12.2533 11.8466V8.7533" stroke="black" stroke-linecap="round" stroke-linejoin="round"/>
    <path d="M14.2667 10V6" stroke="black" stroke-linecap="round" stroke-linejoin="round"/>
</svg>
