<svg xmlns="http://www.w3.org/2000/svg" width="20px" height="20px" viewBox="0 0 20.33 23.88">
  <path d="M8.61 13.96c2.57,0 4.65,-2.08 4.65,-4.65 0,-2.57 -2.08,-4.65 -4.65,-4.65 -2.57,0 -4.65,2.08 -4.65,4.65 0,2.57 2.08,4.65 4.65,4.65zm7.99 9.3c0,-3.6 -3.58,-6.51 -7.99,-6.51 -4.41,0 -7.99,2.91 -7.99,6.51m14.97 -17.84c1.32,0 2.4,-1.08 2.4,-2.4 0,-1.33 -1.08,-2.4 -2.4,-2.4 -1.33,0 -2.4,1.07 -2.4,2.4 0,1.32 1.07,2.4 2.4,2.4zm4.12 4.8c0,-1.86 -1.85,-3.36 -4.12,-3.36 -0.51,0 -1,0.08 -1.45,0.21" stroke="#292D32" stroke-width="1.6" stroke-linecap="round" stroke-linejoin="round" stroke-miterlimit="22.9256" fill="none"/>
</svg>
